<?xml version="1.0" standalone="no"?>
<!DOCTYPE svg PUBLIC "-//W3C//DTD SVG 20010904//EN"
 "http://www.w3.org/TR/2001/REC-SVG-20010904/DTD/svg10.dtd">
<svg version="1.0" xmlns="http://www.w3.org/2000/svg"
 width="171.000000pt" height="171.000000pt" viewBox="0 0 171.000000 171.000000"
 preserveAspectRatio="xMidYMid meet">
<metadata>
Created by potrace 1.11, written by Peter Selinger 2001-2013
</metadata>
<g transform="translate(0.000000,171.000000) scale(0.100000,-0.100000)"
fill="#000000" stroke="none">
<path d="M848 1698 c-2 -7 -3 -197 -3 -423 l1 -410 423 -1 423 -1 -5 71 c-17
230 -142 461 -327 600 -100 75 -262 148 -361 161 -107 15 -147 16 -151 3z
m174 -157 c227 -58 416 -232 487 -447 12 -38 25 -89 28 -114 l5 -45 -307 0
c-282 0 -309 1 -314 17 -4 13 -6 592 -2 606 2 6 33 1 103 -17z"/>
<path d="M644 1679 c-238 -58 -427 -205 -543 -419 -105 -196 -128 -452 -59
-653 102 -299 333 -506 638 -572 95 -21 304 -13 395 14 309 92 540 345 599
657 12 68 12 75 -3 82 -9 4 -213 7 -453 6 -309 -1 -438 2 -441 10 -2 6 -3 210
-2 454 l0 442 -30 -2 c-17 -1 -63 -10 -101 -19z m61 -544 l0 -410 115 -2 c63
-1 251 -2 417 -2 l302 -1 -16 -52 c-57 -195 -181 -341 -370 -437 -119 -61
-313 -87 -434 -59 -24 5 -51 11 -59 13 -45 9 -135 50 -189 85 -168 109 -274
264 -317 465 -12 54 -10 206 3 265 17 78 17 78 31 113 7 15 16 38 22 52 19 51
84 141 140 197 70 69 152 123 245 160 121 48 110 87 110 -387z"/>
</g>
</svg>
